<?xml version="1.0" encoding="UTF-8"?>
<svg xmlns="http://www.w3.org/2000/svg" xmlns:xlink="http://www.w3.org/1999/xlink" width="90px" height="px" viewBox="0 0 90 90" version="1.1">
<g id="surface1">
<path style=" stroke:none;fill-rule:nonzero;fill:rgb(60.784314%,30.980392%,58.823529%);fill-opacity:1;" d="M 81.140625 21.585938 L 47.179688 2.039062 C 46.617188 1.6875 45.84375 1.546875 45 1.546875 C 44.15625 1.546875 43.382812 1.757812 42.820312 2.039062 L 9.070312 21.65625 C 7.875 22.359375 7.03125 24.117188 7.03125 25.453125 L 7.03125 64.617188 C 7.03125 65.390625 7.171875 66.304688 7.734375 67.078125 L 82.828125 23.484375 C 82.40625 22.640625 81.773438 22.007812 81.140625 21.585938 Z M 81.140625 21.585938 "/>
<path style=" stroke:none;fill-rule:nonzero;fill:rgb(40.784314%,12.941176%,47.843137%);fill-opacity:1;" d="M 7.523438 67.007812 C 7.875 67.570312 8.367188 68.0625 8.859375 68.34375 L 42.75 87.960938 C 43.3125 88.3125 44.085938 88.453125 44.929688 88.453125 C 45.773438 88.453125 46.546875 88.242188 47.109375 87.960938 L 80.859375 68.34375 C 82.054688 67.640625 82.898438 65.882812 82.898438 64.546875 L 82.898438 25.382812 C 82.898438 24.75 82.828125 24.046875 82.476562 23.414062 Z M 7.523438 67.007812 "/>
<path style=" stroke:none;fill-rule:nonzero;fill:rgb(100%,100%,100%);fill-opacity:1;" d="M 59.976562 53.507812 C 57.023438 58.710938 51.398438 62.226562 45 62.226562 C 35.507812 62.226562 27.773438 54.492188 27.773438 45 C 27.773438 35.507812 35.507812 27.773438 45 27.773438 C 51.398438 27.773438 57.023438 31.289062 59.976562 36.5625 L 69.117188 31.289062 C 64.335938 22.921875 55.335938 17.226562 45 17.226562 C 29.671875 17.226562 17.226562 29.671875 17.226562 45 C 17.226562 60.328125 29.671875 72.773438 45 72.773438 C 55.265625 72.773438 64.265625 67.148438 69.046875 58.851562 Z M 68.203125 46.546875 L 68.835938 43.523438 L 65.882812 43.523438 L 65.882812 40.21875 L 69.46875 40.21875 L 70.3125 35.859375 L 73.757812 35.859375 L 72.914062 40.148438 L 75.585938 40.148438 L 76.429688 35.859375 L 79.804688 35.859375 L 78.960938 40.148438 L 80.648438 40.148438 L 80.648438 43.453125 L 78.328125 43.453125 L 77.695312 46.476562 L 80.648438 46.476562 L 80.648438 49.78125 L 77.0625 49.78125 L 76.21875 54 L 72.773438 54 L 73.617188 49.78125 L 70.945312 49.78125 L 70.101562 54 L 66.726562 54 L 67.570312 49.78125 L 65.882812 49.78125 L 65.882812 46.476562 L 68.203125 46.476562 Z M 71.578125 46.546875 L 74.25 46.546875 L 74.882812 43.523438 L 72.210938 43.523438 Z M 71.578125 46.546875 "/>
</g>
</svg>
