<?xml version="1.0" encoding="UTF-8"?>
<svg xmlns="http://www.w3.org/2000/svg" xmlns:xlink="http://www.w3.org/1999/xlink" width="90px" height="px" viewBox="0 0 90 90" version="1.1">
<g id="surface1">
<path style=" stroke:none;fill-rule:nonzero;fill:rgb(8.235294%,44.705882%,71.372549%);fill-opacity:1;" d="M 13.230469 80.242188 L 6.160156 0.949219 L 83.839844 0.949219 L 76.765625 80.230469 L 44.953125 89.050781 Z M 13.230469 80.242188 "/>
<path style=" stroke:none;fill-rule:nonzero;fill:rgb(20%,66.27451%,86.27451%);fill-opacity:1;" d="M 45 82.308594 L 70.707031 75.183594 L 76.753906 7.433594 L 45 7.433594 Z M 45 82.308594 "/>
<path style=" stroke:none;fill-rule:nonzero;fill:rgb(100%,100%,100%);fill-opacity:1;" d="M 45 36.160156 L 57.871094 36.160156 L 58.757812 26.203125 L 45 26.203125 L 45 16.476562 L 69.386719 16.476562 L 69.152344 19.085938 L 66.761719 45.886719 L 45 45.886719 Z M 45 36.160156 "/>
<path style=" stroke:none;fill-rule:nonzero;fill:rgb(92.156863%,92.156863%,92.156863%);fill-opacity:1;" d="M 45.058594 61.417969 L 45.015625 61.429688 L 34.183594 58.503906 L 33.492188 50.75 L 23.730469 50.75 L 25.09375 66.019531 L 45.015625 71.546875 L 45.058594 71.535156 Z M 45.058594 61.417969 "/>
<path style=" stroke:none;fill-rule:nonzero;fill:rgb(100%,100%,100%);fill-opacity:1;" d="M 57.042969 45.472656 L 55.871094 58.496094 L 45.023438 61.425781 L 45.023438 71.542969 L 64.960938 66.019531 L 65.105469 64.375 L 66.800781 45.472656 Z M 57.042969 45.472656 "/>
<path style=" stroke:none;fill-rule:nonzero;fill:rgb(92.156863%,92.156863%,92.156863%);fill-opacity:1;" d="M 45.035156 16.476562 L 45.035156 26.203125 L 21.542969 26.203125 L 21.347656 24.015625 L 20.90625 19.085938 L 20.671875 16.476562 Z M 45 36.164062 L 45 45.886719 L 34.308594 45.886719 L 34.113281 43.703125 L 33.667969 38.773438 L 33.4375 36.164062 Z M 45 36.164062 "/>
</g>
</svg>
