<?xml version="1.0" encoding="UTF-8"?>
<svg xmlns="http://www.w3.org/2000/svg" xmlns:xlink="http://www.w3.org/1999/xlink" width="90px" height="px" viewBox="0 0 90 90" version="1.1">
<g id="surface1">
<path style=" stroke:none;fill-rule:nonzero;fill:rgb(3.921569%,81.176471%,51.372549%);fill-opacity:1;" d="M 31.992188 90.703125 C 40.359375 90.703125 47.109375 83.953125 47.109375 75.585938 L 47.109375 60.46875 L 31.992188 60.46875 C 23.625 60.46875 16.875 67.21875 16.875 75.585938 C 16.875 83.953125 23.625 90.703125 31.992188 90.703125 Z M 31.992188 90.703125 "/>
<path style=" stroke:none;fill-rule:nonzero;fill:rgb(63.529412%,34.901961%,100%);fill-opacity:1;" d="M 16.875 45.351562 C 16.875 36.984375 23.625 30.234375 31.992188 30.234375 L 47.109375 30.234375 L 47.109375 60.46875 L 31.992188 60.46875 C 23.625 60.46875 16.875 53.71875 16.875 45.351562 Z M 16.875 45.351562 "/>
<path style=" stroke:none;fill-rule:nonzero;fill:rgb(94.901961%,30.588235%,11.764706%);fill-opacity:1;" d="M 16.875 15.117188 C 16.875 6.75 23.625 0 31.992188 0 L 47.109375 0 L 47.109375 30.234375 L 31.992188 30.234375 C 23.625 30.234375 16.875 23.484375 16.875 15.117188 Z M 16.875 15.117188 "/>
<path style=" stroke:none;fill-rule:nonzero;fill:rgb(100%,44.705882%,38.431373%);fill-opacity:1;" d="M 47.109375 0 L 62.226562 0 C 70.59375 0 77.34375 6.75 77.34375 15.117188 C 77.34375 23.484375 70.59375 30.234375 62.226562 30.234375 L 47.109375 30.234375 Z M 47.109375 0 "/>
<path style=" stroke:none;fill-rule:nonzero;fill:rgb(10.196078%,73.72549%,99.607843%);fill-opacity:1;" d="M 77.34375 45.351562 C 77.34375 53.71875 70.59375 60.46875 62.226562 60.46875 C 53.859375 60.46875 47.109375 53.71875 47.109375 45.351562 C 47.109375 36.984375 53.859375 30.234375 62.226562 30.234375 C 70.59375 30.234375 77.34375 36.984375 77.34375 45.351562 Z M 77.34375 45.351562 "/>
</g>
</svg>
