<?xml version="1.0" encoding="UTF-8"?>
<svg xmlns="http://www.w3.org/2000/svg" xmlns:xlink="http://www.w3.org/1999/xlink" width="90px" height="px" viewBox="0 0 90 90" version="1.1">
<g id="surface1">
<path style=" stroke:none;fill-rule:nonzero;fill:rgb(89.411765%,30.196078%,14.901961%);fill-opacity:1;" d="M 13.386719 80.070312 L 6.351562 1.167969 L 83.648438 1.167969 L 76.605469 80.058594 L 44.953125 88.832031 Z M 13.386719 80.070312 "/>
<path style=" stroke:none;fill-rule:nonzero;fill:rgb(94.509804%,39.607843%,16.078431%);fill-opacity:1;" d="M 45 82.125 L 70.578125 75.035156 L 76.597656 7.617188 L 45 7.617188 Z M 45 82.125 "/>
<path style=" stroke:none;fill-rule:nonzero;fill:rgb(92.156863%,92.156863%,92.156863%);fill-opacity:1;" d="M 45 36.882812 L 32.195312 36.882812 L 31.308594 26.972656 L 45 26.972656 L 45 17.296875 L 20.734375 17.296875 L 20.964844 19.890625 L 23.34375 46.558594 L 45 46.558594 Z M 45 62.015625 L 44.957031 62.027344 L 34.179688 59.117188 L 33.492188 51.398438 L 23.777344 51.398438 L 25.132812 66.59375 L 44.957031 72.09375 L 45 72.082031 Z M 45 62.015625 "/>
<path style=" stroke:none;fill-rule:nonzero;fill:rgb(100%,100%,100%);fill-opacity:1;" d="M 44.964844 36.882812 L 44.964844 46.558594 L 56.882812 46.558594 L 55.757812 59.109375 L 44.964844 62.023438 L 44.964844 72.089844 L 64.804688 66.59375 L 64.949219 64.957031 L 67.222656 39.480469 L 67.460938 36.882812 Z M 44.964844 17.296875 L 44.964844 26.972656 L 68.339844 26.972656 L 68.535156 24.796875 L 68.976562 19.890625 L 69.207031 17.296875 Z M 44.964844 17.296875 "/>
</g>
</svg>
