<?xml version="1.0" encoding="UTF-8"?>
<svg xmlns="http://www.w3.org/2000/svg" xmlns:xlink="http://www.w3.org/1999/xlink" width="90px" height="px" viewBox="0 0 90 90" version="1.1">
<g id="surface1">
<path style=" stroke:none;fill-rule:nonzero;fill:rgb(94.117647%,85.882353%,30.980392%);fill-opacity:1;" d="M 0.988281 0.988281 L 89.011719 0.988281 L 89.011719 89.011719 L 0.988281 89.011719 Z M 0.988281 0.988281 "/>
<path style=" stroke:none;fill-rule:nonzero;fill:rgb(19.607843%,20%,18.823529%);fill-opacity:1;" d="M 81.804688 68.015625 C 81.160156 64 78.542969 60.628906 70.789062 57.484375 C 68.09375 56.246094 65.089844 55.359375 64.195312 53.316406 C 63.875 52.128906 63.832031 51.460938 64.035156 50.742188 C 64.613281 48.40625 67.398438 47.679688 69.605469 48.347656 C 71.03125 48.824219 72.375 49.921875 73.1875 51.667969 C 76.988281 49.210938 76.980469 49.226562 79.632812 47.535156 C 78.660156 46.03125 78.140625 45.335938 77.507812 44.691406 C 75.222656 42.140625 72.109375 40.824219 67.132812 40.925781 L 64.539062 41.261719 C 62.054688 41.890625 59.683594 43.195312 58.296875 44.941406 C 54.128906 49.671875 55.316406 57.945312 60.386719 61.351562 C 65.382812 65.097656 72.722656 65.953125 73.65625 69.457031 C 74.570312 73.75 70.503906 75.140625 66.460938 74.644531 C 63.484375 74.027344 61.828125 72.511719 60.035156 69.757812 C 56.738281 71.667969 56.738281 71.667969 53.351562 73.617188 C 54.15625 75.371094 55 76.167969 56.347656 77.691406 C 62.722656 84.15625 78.675781 83.839844 81.539062 74.050781 C 81.65625 73.714844 82.425781 71.472656 81.804688 68.015625 Z M 48.839844 41.445312 L 40.609375 41.445312 L 40.574219 62.730469 C 40.574219 67.257812 40.808594 71.40625 40.070312 72.679688 C 38.867188 75.179688 35.746094 74.871094 34.324219 74.382812 C 32.875 73.671875 32.140625 72.660156 31.285156 71.230469 C 31.054688 70.820312 30.878906 70.503906 30.816406 70.476562 L 24.125 74.578125 C 25.238281 76.863281 26.875 78.84375 28.976562 80.132812 C 32.113281 82.015625 36.332031 82.59375 40.742188 81.578125 C 43.613281 80.742188 46.085938 79.011719 47.382812 76.375 C 49.257812 72.921875 48.855469 68.738281 48.839844 64.109375 C 48.882812 56.5625 48.839844 49.015625 48.839844 41.445312 Z M 48.839844 41.445312 "/>
</g>
</svg>
