<svg width="22" height="19" viewBox="0 0 22 19" fill="none" xmlns="http://www.w3.org/2000/svg">
<path fill-rule="evenodd" clip-rule="evenodd" d="M10.9725 17.3683C7.73349 17.3683 4.96649 16.8783 4.96649 14.9163C4.96649 12.9543 7.71549 11.2463 10.9725 11.2463C14.2115 11.2463 16.9785 12.9383 16.9785 14.8993C16.9785 16.8603 14.2295 17.3683 10.9725 17.3683Z" stroke="white" stroke-width="1.5" stroke-linecap="round" stroke-linejoin="round"/>
<path fill-rule="evenodd" clip-rule="evenodd" d="M10.9725 8.44876C13.0985 8.44876 14.8225 6.72576 14.8225 4.59976C14.8225 2.47376 13.0985 0.749756 10.9725 0.749756C8.84648 0.749756 7.12248 2.47376 7.12248 4.59976C7.11648 6.71776 8.82648 8.44176 10.9455 8.44876H10.9725Z" stroke="white" stroke-width="1.5" stroke-linecap="round" stroke-linejoin="round"/>
<path d="M17.3622 7.39154C18.5992 7.06054 19.5112 5.93254 19.5112 4.58954C19.5112 3.18854 18.5182 2.01854 17.1962 1.74854" stroke="white" stroke-width="1.5" stroke-linecap="round" stroke-linejoin="round"/>
<path d="M17.9432 10.5444C19.6972 10.5444 21.1952 11.7334 21.1952 12.7954C21.1952 13.4204 20.6782 14.1014 19.8942 14.2854" stroke="white" stroke-width="1.5" stroke-linecap="round" stroke-linejoin="round"/>
<path d="M4.58378 7.39154C3.34578 7.06054 2.43378 5.93254 2.43378 4.58954C2.43378 3.18854 3.42778 2.01854 4.74878 1.74854" stroke="white" stroke-width="1.5" stroke-linecap="round" stroke-linejoin="round"/>
<path d="M4.00179 10.5444C2.24779 10.5444 0.749786 11.7334 0.749786 12.7954C0.749786 13.4204 1.26679 14.1014 2.05179 14.2854" stroke="white" stroke-width="1.5" stroke-linecap="round" stroke-linejoin="round"/>
</svg>
