<?xml version="1.0" encoding="UTF-8"?>
<svg xmlns="http://www.w3.org/2000/svg" xmlns:xlink="http://www.w3.org/1999/xlink" width="90px" height="px" viewBox="0 0 90 90" version="1.1">
<g id="surface1">
<path style=" stroke:none;fill-rule:nonzero;fill:rgb(0%,38.039216%,54.117647%);fill-opacity:1;" d="M 82.230469 68.769531 C 77.402344 68.640625 73.71875 69.089844 70.566406 70.417969 C 69.671875 70.792969 68.242188 70.804688 68.097656 71.925781 C 68.589844 72.441406 68.667969 73.210938 69.058594 73.847656 C 69.808594 75.0625 71.078125 76.695312 72.214844 77.550781 C 73.453125 78.484375 74.726562 79.484375 76.054688 80.292969 C 78.417969 81.734375 81.054688 82.554688 83.324219 84 C 84.667969 84.847656 85.996094 85.917969 87.304688 86.878906 C 87.949219 87.351562 88.386719 88.089844 89.226562 88.386719 L 89.226562 88.253906 C 88.785156 87.691406 88.667969 86.917969 88.265625 86.332031 L 86.480469 84.546875 C 84.738281 82.230469 82.523438 80.199219 80.167969 78.511719 C 78.292969 77.164062 74.09375 75.34375 73.3125 73.160156 L 73.171875 73.023438 C 74.503906 72.871094 76.0625 72.390625 77.289062 72.0625 C 79.351562 71.507812 81.195312 71.652344 83.324219 71.101562 L 86.207031 70.277344 L 86.207031 69.730469 C 85.128906 68.625 84.363281 67.164062 83.1875 66.164062 C 80.117188 63.546875 76.765625 60.933594 73.3125 58.753906 C 71.394531 57.546875 69.03125 56.761719 67 55.738281 C 66.316406 55.390625 65.117188 55.210938 64.667969 54.636719 C 63.601562 53.28125 63.019531 51.558594 62.199219 49.972656 C 60.476562 46.65625 58.785156 43.035156 57.257812 39.546875 C 56.21875 37.167969 55.539062 34.820312 54.242188 32.6875 C 48.011719 22.445312 41.304688 16.261719 30.917969 10.1875 C 28.707031 8.894531 26.046875 8.382812 23.234375 7.714844 C 21.726562 7.625 20.21875 7.535156 18.707031 7.441406 C 17.785156 7.058594 16.828125 5.929688 15.964844 5.382812 C 12.523438 3.210938 3.695312 -1.519531 1.148438 4.699219 C -0.460938 8.621094 3.554688 12.449219 4.988281 14.4375 C 5.996094 15.832031 7.289062 17.398438 8.007812 18.964844 C 8.480469 19.996094 8.5625 21.03125 8.96875 22.121094 C 9.964844 24.808594 10.832031 27.734375 12.125 30.214844 C 12.773438 31.472656 13.492188 32.796875 14.320312 33.921875 C 14.824219 34.609375 15.691406 34.914062 15.828125 35.976562 C 14.980469 37.164062 14.929688 39.003906 14.457031 40.507812 C 12.3125 47.265625 13.121094 55.671875 16.238281 60.675781 C 17.195312 62.210938 19.449219 65.503906 22.550781 64.242188 C 25.261719 63.136719 24.65625 59.714844 25.429688 56.695312 C 25.605469 56.011719 25.5 55.507812 25.84375 55.050781 L 25.84375 55.1875 L 28.3125 60.125 C 30.140625 63.070312 33.382812 66.144531 36.132812 68.21875 C 37.558594 69.296875 38.679688 71.15625 40.523438 71.789062 L 40.523438 71.648438 L 40.386719 71.648438 C 40.027344 71.09375 39.46875 70.863281 39.015625 70.414062 C 37.941406 69.363281 36.746094 68.054688 35.859375 66.847656 C 33.359375 63.453125 31.148438 59.742188 29.136719 55.875 C 28.175781 54.027344 27.339844 51.992188 26.527344 50.109375 C 26.214844 49.386719 26.222656 48.289062 25.570312 47.914062 C 24.683594 49.292969 23.375 50.40625 22.6875 52.03125 C 21.589844 54.628906 21.449219 57.800781 21.042969 61.085938 C 20.800781 61.171875 20.910156 61.113281 20.765625 61.222656 C 18.855469 60.761719 18.1875 58.796875 17.476562 57.109375 C 15.679688 52.839844 15.34375 45.96875 16.925781 41.054688 C 17.335938 39.785156 19.183594 35.78125 18.433594 34.605469 C 18.078125 33.4375 16.898438 32.757812 16.238281 31.863281 C 15.421875 30.757812 14.609375 29.300781 14.042969 28.019531 C 12.574219 24.695312 11.886719 20.957031 10.339844 17.59375 C 9.601562 15.988281 8.347656 14.359375 7.320312 12.929688 C 6.183594 11.347656 4.910156 10.179688 4.027344 8.265625 C 3.714844 7.585938 3.289062 6.496094 3.753906 5.796875 C 3.902344 5.324219 4.109375 5.125 4.578125 4.972656 C 5.375 4.359375 7.589844 5.175781 8.417969 5.519531 C 10.617188 6.433594 12.453125 7.304688 14.320312 8.539062 C 15.210938 9.132812 16.117188 10.28125 17.199219 10.597656 L 18.433594 10.597656 C 20.367188 11.042969 22.527344 10.734375 24.332031 11.28125 C 27.523438 12.253906 30.382812 13.761719 32.976562 15.398438 C 40.882812 20.394531 47.351562 27.5 51.773438 35.980469 C 52.484375 37.34375 52.792969 38.648438 53.417969 40.09375 C 54.683594 43.015625 56.273438 46.019531 57.53125 48.875 C 58.789062 51.726562 60.011719 54.601562 61.789062 56.972656 C 62.71875 58.214844 66.324219 58.886719 67.960938 59.578125 C 69.109375 60.0625 70.988281 60.570312 72.078125 61.222656 C 74.152344 62.476562 76.164062 63.96875 78.113281 65.339844 C 79.085938 66.027344 82.078125 67.53125 82.230469 68.769531 Z M 20.902344 16.5 C 19.898438 16.480469 19.183594 16.609375 18.433594 16.773438 L 18.433594 16.910156 L 18.570312 16.910156 C 19.050781 17.894531 19.898438 18.53125 20.492188 19.378906 C 20.949219 20.339844 21.40625 21.300781 21.863281 22.261719 L 22 22.125 C 22.847656 21.527344 23.238281 20.570312 23.234375 19.105469 C 22.894531 18.75 22.84375 18.300781 22.546875 17.871094 C 22.15625 17.300781 21.398438 16.976562 20.902344 16.5 Z M 20.902344 16.5 "/>
</g>
</svg>
