<?xml version="1.0" encoding="UTF-8"?>
<svg xmlns="http://www.w3.org/2000/svg" xmlns:xlink="http://www.w3.org/1999/xlink" width="90px" height="px" viewBox="0 0 90 90" version="1.1">
<g id="surface1">
<path style=" stroke:none;fill-rule:nonzero;fill:rgb(38.039216%,85.490196%,98.431373%);fill-opacity:1;" d="M 53.015625 45 C 53.015625 49.425781 49.425781 53.015625 45 53.015625 C 40.574219 53.015625 36.984375 49.425781 36.984375 45 C 36.984375 40.574219 40.574219 36.984375 45 36.984375 C 49.425781 36.984375 53.015625 40.574219 53.015625 45 Z M 53.015625 45 "/>
<path style=" stroke:none;fill-rule:nonzero;fill:rgb(38.039216%,85.490196%,98.431373%);fill-opacity:1;" d="M 75.445312 31.78125 C 73.898438 31.21875 72.28125 30.65625 70.59375 30.164062 C 71.015625 28.476562 71.367188 26.789062 71.648438 25.171875 C 73.125 15.890625 71.507812 9.351562 67.007812 6.820312 C 65.671875 6.046875 64.195312 5.695312 62.507812 5.695312 C 57.585938 5.695312 51.328125 9.351562 45 15.46875 C 38.671875 9.351562 32.414062 5.695312 27.492188 5.695312 C 25.804688 5.695312 24.328125 6.046875 22.992188 6.820312 C 18.492188 9.421875 16.875 15.960938 18.351562 25.171875 C 18.632812 26.789062 18.984375 28.476562 19.40625 30.164062 C 17.71875 30.65625 16.101562 31.148438 14.554688 31.78125 C 5.765625 35.15625 0.984375 39.796875 0.984375 45 C 0.984375 50.203125 5.835938 54.84375 14.554688 58.21875 C 16.101562 58.78125 17.71875 59.34375 19.40625 59.835938 C 18.984375 61.523438 18.632812 63.210938 18.351562 64.828125 C 16.875 74.109375 18.492188 80.648438 22.992188 83.179688 C 24.328125 83.953125 25.804688 84.304688 27.492188 84.304688 C 32.484375 84.304688 38.742188 80.648438 45 74.53125 C 51.328125 80.648438 57.585938 84.304688 62.507812 84.304688 C 64.195312 84.304688 65.671875 83.953125 67.007812 83.179688 C 71.507812 80.578125 73.125 74.039062 71.648438 64.828125 C 71.367188 63.210938 71.015625 61.523438 70.59375 59.835938 C 72.28125 59.34375 73.898438 58.851562 75.445312 58.21875 C 84.234375 54.84375 89.015625 50.203125 89.015625 45 C 89.015625 39.796875 84.234375 35.15625 75.445312 31.78125 Z M 65.039062 10.335938 C 67.921875 12.023438 68.90625 17.226562 67.710938 24.609375 C 67.5 26.085938 67.148438 27.632812 66.726562 29.25 C 63.070312 28.40625 59.203125 27.84375 55.125 27.492188 C 52.734375 24.117188 50.273438 21.09375 47.8125 18.351562 C 53.015625 13.21875 58.289062 9.703125 62.578125 9.703125 C 63.492188 9.703125 64.335938 9.914062 65.039062 10.335938 Z M 57.164062 52.03125 C 55.898438 54.28125 54.421875 56.53125 52.875 58.78125 C 50.273438 58.992188 47.671875 59.0625 45 59.0625 C 42.257812 59.0625 39.65625 58.992188 37.125 58.78125 C 35.578125 56.53125 34.171875 54.28125 32.90625 52.03125 C 31.570312 49.710938 30.304688 47.320312 29.179688 45 C 30.304688 42.679688 31.570312 40.289062 32.90625 37.96875 C 34.171875 35.71875 35.648438 33.46875 37.195312 31.21875 C 39.796875 31.007812 42.398438 30.9375 45.070312 30.9375 C 47.8125 30.9375 50.414062 31.007812 52.945312 31.21875 C 54.492188 33.46875 55.898438 35.71875 57.164062 37.96875 C 58.5 40.289062 59.765625 42.679688 60.890625 45 C 59.695312 47.320312 58.5 49.640625 57.164062 52.03125 Z M 63 49.710938 C 64.054688 52.171875 64.898438 54.5625 65.671875 56.953125 C 63.28125 57.515625 60.75 57.9375 58.078125 58.289062 C 58.921875 56.953125 59.835938 55.546875 60.609375 54.070312 C 61.453125 52.59375 62.226562 51.117188 63 49.710938 Z M 45 68.765625 C 43.3125 66.9375 41.695312 64.96875 40.148438 62.929688 C 41.765625 63 43.382812 63.070312 45 63.070312 C 46.617188 63.070312 48.234375 63 49.851562 62.929688 C 48.304688 64.96875 46.6875 66.9375 45 68.765625 Z M 31.921875 58.21875 C 29.25 57.867188 26.71875 57.445312 24.328125 56.882812 C 25.101562 54.5625 25.945312 52.101562 27 49.640625 C 27.773438 51.046875 28.546875 52.523438 29.390625 53.929688 C 30.234375 55.476562 31.078125 56.8125 31.921875 58.21875 Z M 27 40.289062 C 25.945312 37.828125 25.101562 35.4375 24.328125 33.046875 C 26.71875 32.484375 29.25 32.0625 31.921875 31.710938 C 31.078125 33.046875 30.164062 34.453125 29.390625 35.929688 C 28.546875 37.40625 27.773438 38.882812 27 40.289062 Z M 45 21.234375 C 46.6875 23.0625 48.304688 25.03125 49.851562 27.070312 C 48.234375 27 46.617188 26.929688 45 26.929688 C 43.382812 26.929688 41.765625 27 40.148438 27.070312 C 41.695312 25.03125 43.3125 23.0625 45 21.234375 Z M 60.609375 36 L 58.078125 31.78125 C 60.75 32.132812 63.28125 32.554688 65.671875 33.117188 C 64.898438 35.4375 64.054688 37.898438 63 40.359375 C 62.226562 38.882812 61.453125 37.40625 60.609375 36 Z M 22.289062 24.609375 C 21.09375 17.226562 22.078125 12.023438 24.960938 10.335938 C 25.664062 9.914062 26.507812 9.703125 27.421875 9.703125 C 31.640625 9.703125 36.914062 13.148438 42.1875 18.351562 C 39.726562 21.023438 37.265625 24.117188 34.875 27.492188 C 30.796875 27.84375 26.929688 28.476562 23.273438 29.25 C 22.851562 27.632812 22.570312 26.085938 22.289062 24.609375 Z M 4.921875 45 C 4.921875 41.695312 8.929688 38.179688 15.960938 35.578125 C 17.367188 35.015625 18.914062 34.523438 20.460938 34.101562 C 21.585938 37.617188 22.992188 41.34375 24.679688 45.070312 C 22.992188 48.796875 21.515625 52.453125 20.460938 55.96875 C 10.757812 53.15625 4.921875 48.9375 4.921875 45 Z M 24.960938 79.664062 C 22.078125 77.976562 21.09375 72.773438 22.289062 65.390625 C 22.5 63.914062 22.851562 62.367188 23.273438 60.75 C 26.929688 61.59375 30.796875 62.15625 34.875 62.507812 C 37.265625 65.882812 39.726562 68.90625 42.1875 71.648438 C 36.984375 76.78125 31.710938 80.296875 27.421875 80.296875 C 26.507812 80.296875 25.664062 80.085938 24.960938 79.664062 Z M 67.710938 65.390625 C 68.90625 72.773438 67.921875 77.976562 65.039062 79.664062 C 64.335938 80.085938 63.492188 80.296875 62.578125 80.296875 C 58.359375 80.296875 53.085938 76.851562 47.8125 71.648438 C 50.273438 68.976562 52.734375 65.882812 55.125 62.507812 C 59.203125 62.15625 63.070312 61.523438 66.726562 60.75 C 67.148438 62.367188 67.429688 63.914062 67.710938 65.390625 Z M 74.039062 54.421875 C 72.632812 54.984375 71.085938 55.476562 69.539062 55.898438 C 68.414062 52.382812 67.007812 48.65625 65.320312 44.929688 C 67.007812 41.203125 68.484375 37.546875 69.539062 34.03125 C 79.242188 36.84375 85.078125 41.0625 85.078125 45 C 85.078125 48.304688 81 51.820312 74.039062 54.421875 Z M 74.039062 54.421875 "/>
</g>
</svg>
