<?xml version="1.0" encoding="UTF-8"?>
<svg xmlns="http://www.w3.org/2000/svg" xmlns:xlink="http://www.w3.org/1999/xlink" width="90px" height="px" viewBox="0 0 90 86" version="1.1">
<g id="surface1">
<path style=" stroke:none;fill-rule:nonzero;fill:rgb(46.27451%,29.019608%,73.72549%);fill-opacity:1;" d="M 62.359375 59.824219 C 65.683594 59.476562 68.203125 56.609375 68.085938 53.164062 C 67.972656 49.71875 65.109375 46.964844 61.671875 46.964844 L 61.445312 46.964844 C 57.894531 47.078125 55.144531 50.0625 55.257812 53.621094 C 55.375 55.34375 56.0625 56.835938 57.09375 57.871094 C 53.199219 65.5625 47.242188 71.1875 38.308594 75.898438 C 32.238281 79.113281 25.941406 80.257812 19.640625 79.457031 C 14.488281 78.765625 10.480469 76.472656 7.960938 72.683594 C 4.292969 67.054688 3.949219 60.96875 7.042969 54.886719 C 9.21875 50.523438 12.65625 47.308594 14.832031 45.699219 C 14.371094 44.207031 13.6875 41.679688 13.34375 39.84375 C -3.265625 51.898438 -1.546875 68.203125 3.492188 75.898438 C 7.273438 81.636719 14.945312 85.195312 23.421875 85.195312 C 25.710938 85.195312 28 84.96875 30.292969 84.394531 C 44.953125 81.523438 56.0625 72.796875 62.359375 59.824219 Z M 82.519531 45.585938 C 73.8125 35.367188 60.984375 29.742188 46.328125 29.742188 L 44.492188 29.742188 C 43.464844 27.675781 41.289062 26.296875 38.882812 26.296875 L 38.652344 26.296875 C 35.101562 26.410156 32.355469 29.394531 32.46875 32.957031 C 32.582031 36.398438 35.445312 39.15625 38.882812 39.15625 L 39.109375 39.15625 C 41.628906 39.039062 43.808594 37.433594 44.722656 35.25 L 46.785156 35.25 C 55.488281 35.25 63.734375 37.777344 71.179688 42.714844 C 76.90625 46.503906 81.027344 51.441406 83.320312 57.410156 C 85.265625 62.234375 85.152344 66.941406 83.089844 70.960938 C 79.882812 77.042969 74.5 80.375 67.398438 80.375 C 62.820312 80.375 58.464844 78.996094 56.175781 77.964844 C 54.917969 79.113281 52.625 80.949219 51.023438 82.097656 C 55.945312 84.394531 60.984375 85.65625 65.796875 85.65625 C 76.792969 85.65625 84.921875 79.570312 88.015625 73.484375 C 91.335938 66.824219 91.105469 55.34375 82.519531 45.585938 Z M 24.335938 61.773438 C 24.453125 65.21875 27.316406 67.972656 30.75 67.972656 L 30.980469 67.972656 C 34.53125 67.859375 37.277344 64.875 37.164062 61.316406 C 37.050781 57.871094 34.1875 55.113281 30.75 55.113281 L 30.523438 55.113281 C 30.292969 55.113281 29.949219 55.113281 29.71875 55.230469 C 25.023438 47.421875 23.078125 38.925781 23.765625 29.742188 C 24.222656 22.851562 26.511719 16.882812 30.523438 11.945312 C 33.84375 7.695312 40.257812 5.628906 44.609375 5.515625 C 56.75 5.285156 61.902344 20.441406 62.246094 26.527344 C 63.734375 26.871094 66.253906 27.671875 67.972656 28.246094 C 66.597656 9.648438 55.144531 0.00390625 44.152344 0.00390625 C 33.84375 0.00390625 24.335938 7.464844 20.558594 18.488281 C 15.289062 33.183594 18.726562 47.308594 25.136719 58.445312 C 24.566406 59.25 24.222656 60.511719 24.335938 61.773438 Z M 24.335938 61.773438 "/>
</g>
</svg>
